<svg fill="none" height="100%" width="100%" viewBox="0 0 700 700" xmlns:xlink="http://www.w3.org/1999/xlink" xmlns="http://www.w3.org/2000/svg"><defs><clipPath id="i0"><rect height="700" width="700" y="0" x="0" /></clipPath><g id="i1"><g transform="matrix(1,0,0,1,350,350)" id="i2"><g id="i3"><path stroke-width="3" stroke="#1a1a1a" d="M-15,130C-15,130,-0.351,-23.787,-40,-18.5C-62.5,-15.5,-52.632,6.469,-41,5.5C-29,4.5,-5.4,-1.791,4.866,-16.63C15.5,-32,-1.5,-34,-1.5,-34C-1.5,-34,-26.834,-34.873,-13.5,-17C10,14.5,61.874,-9.27,35,-22.5C2.5,-38.5,7,131,7,129" /></g></g><g transform="matrix(1,0,0,1,356.812,362)" id="i4"><g id="i5" transform="matrix(1.077,0,0,1.077,-8.812,-41.484)" fill="#ececec" fill-opacity="0.39"><ellipse ry="129.391" rx="129.391" cy="0" cx="0" fill="#ececec" fill-opacity="0.39" /></g><g id="i6" transform="matrix(1,0,0,1,-11.723,96.273)" fill="#ececec" fill-opacity="0.39"><rect height="56.547" width="132.18" y="-28.273" x="-66.09" fill="#ececec" fill-opacity="0.39" /></g></g></g><g id="i7"><g transform="matrix(1,0,0,1,356.812,356)" id="i8"><g id="i5" transform="matrix(1.077,0,0,1.077,-8.812,-41.484)" fill="#f2ce10"><ellipse ry="129.391" rx="129.391" cy="0" cx="0" fill="#f2ce10" /></g><g id="i6" transform="matrix(1,0,0,1,-11.723,96.273)" fill="#f2ce10"><rect height="56.547" width="132.18" y="-28.273" x="-66.09" fill="#f2ce10" /></g></g><g transform="matrix(1,0,0,1,348,350)" id="i9"><g id="i3"><path stroke-linecap="round" stroke-width="10" stroke="#f5f7e3" d="M-92,-54C-92,-54,-78,-114,-22,-118" /></g></g></g></defs><g transform="matrix(1,0,0,1,0,0)" id="i10"><g clip-path="url(#i0)"><g transform="matrix(1,0,0,1,350,350)"><g><path stroke-width="3" stroke="#1a1a1a" d="M-15,130C-15,130,-0.351,-23.787,-40,-18.5C-62.5,-15.5,-52.632,6.469,-41,5.5C-29,4.5,-5.4,-1.791,4.866,-16.63C15.5,-32,-1.5,-34,-1.5,-34C-1.5,-34,-26.834,-34.873,-13.5,-17C10,14.5,61.874,-9.27,35,-22.5C2.5,-38.5,7,131,7,129" /></g></g><g transform="matrix(1,0,0,1,356.812,362)"><g transform="matrix(1.077,0,0,1.077,-8.812,-41.484)" fill="#ececec" fill-opacity="0.39"><ellipse ry="129.391" rx="129.391" cy="0" cx="0" fill="#ececec" fill-opacity="0.39" /></g><g transform="matrix(1,0,0,1,-11.723,96.273)" fill="#ececec" fill-opacity="0.39"><rect height="56.547" width="132.18" y="-28.273" x="-66.09" fill="#ececec" fill-opacity="0.39" /></g></g></g></g><g opacity="0" id="i11"><animate repeatCount="indefinite" attributeName="opacity" dur="3.003s" begin="0s" fill="freeze" values="0; 0; 1; 0; 1; 0; 1; 1; 0; 0" keyTimes="0; 0.166667; 0.222223; 0.244444; 0.3; 0.422222; 0.477778; 0.922223; 0.944444; 1" keySplines="0 0 1 1; 0 0 1 1; 0 0 1 1; 0 0 1 1; 0 0 1 1; 0 0 1 1; 0 0 1 1; 0 0 1 1; 0 0 1 1" calcMode="spline" /><g transform="translate(350,356) scale(1,1) translate(-350,-350)"><g clip-path="url(#i0)"><g transform="matrix(1,0,0,1,356.812,356)"><g transform="matrix(1.077,0,0,1.077,-8.812,-41.484)" fill="#f2ce10"><ellipse ry="129.391" rx="129.391" cy="0" cx="0" fill="#f2ce10" /></g><g transform="matrix(1,0,0,1,-11.723,96.273)" fill="#f2ce10"><rect height="56.547" width="132.18" y="-28.273" x="-66.09" fill="#f2ce10" /></g></g><g transform="matrix(1,0,0,1,348,350)"><g><path stroke-linecap="round" stroke-width="10" stroke="#f5f7e3" d="M-92,-54C-92,-54,-78,-114,-22,-118" /></g></g></g></g></g><g transform="matrix(0.391,0,0,0.391,346.134,509)" id="i12"><g id="i6" transform="matrix(1,0,0,1,-4.566,164.879)"><rect ry="20" rx="20" height="57.758" width="166.867" y="-28.879" x="-83.433" fill="#5a6265" /></g></g><g transform="matrix(0.391,0,0,0.391,345.787,499)" id="i8"><g id="i6" transform="matrix(1,0,0,1,-4.566,164.879)"><rect ry="20" rx="20" height="57.758" width="166.867" y="-28.879" x="-83.433" fill="#364044" /></g></g><g transform="matrix(0.67,0,0,0.67,346.634,436)" id="i13"><g id="i6" transform="matrix(1,0,0,1,-4.566,164.879)"><rect ry="20" rx="20" height="57.758" width="166.867" y="-28.879" x="-83.433" fill="#5a6265" /></g></g><g transform="matrix(0.696,0,0,0.701,347.177,406)" id="i14"><g id="i6" transform="matrix(1,0,0,1,-4.566,164.879)"><rect ry="20" rx="20" height="57.758" width="166.867" y="-28.879" x="-83.433" fill="#364044" /></g></g><g transform="matrix(1,0,0,0.917,348.5,356)" id="i15"><g id="i6" transform="matrix(1,0,0,1,-4.566,164.879)"><rect ry="20" rx="20" height="57.758" width="166.867" y="-28.879" x="-83.433" fill="#5a6265" /></g></g></svg>