<svg xmlns:xlink="http://www.w3.org/1999/xlink" width="17" height="17" viewBox="0 0 17 17" fill="none" xmlns="http://www.w3.org/2000/svg">
<g clip-path="url(#clip0_2980_26514)">
<path d="M4.25 0C6.5972 0 8.5 1.90279 8.5 4.25V9.5625H0V4.25C0 1.90279 1.90279 0 4.25 0Z" fill="url(#paint0_linear_2980_26514)"/>
<path d="M12.75 0C10.4028 0 8.5 1.90279 8.5 4.25V9.5625H17V4.25C17 1.90279 15.0972 0 12.75 0Z" fill="url(#paint1_linear_2980_26514)"/>
<path d="M12.75 6.90625C12.75 4.55903 10.8472 2.65625 8.5 2.65625C6.15278 2.65625 4.25 4.55903 4.25 6.90625C4.25 9.25347 6.15278 11.1562 8.5 11.1562C10.8472 11.1562 12.75 9.25347 12.75 6.90625Z" fill="url(#paint2_linear_2980_26514)"/>
<path d="M17 4.25021C17 4.2224 16.9997 4.19467 16.9992 4.16699H16.9962C16.893 6.64365 14.6967 8.63836 11.9531 8.75997V8.76584C9.6059 8.76584 7.70312 10.6092 7.70312 12.883C7.70312 15.1569 9.6059 17.0002 11.9531 17.0002L11.9786 17.0001C16.2063 16.9835 17 12.8238 17 10.8908V4.25021Z" fill="url(#paint3_linear_2980_26514)"/>
<path d="M0 10.8908C0 12.8238 0.793693 16.9835 5.02143 17.0001L5.04688 17.0002C7.3941 17.0002 9.29688 15.1569 9.29688 12.883C9.29688 10.6092 7.3941 8.76584 5.04688 8.76584V8.75997C2.30331 8.63836 0.107018 6.64365 0.00379509 4.16699H0.000798174C0.000266865 4.19467 0 4.2224 0 4.25021V10.8908Z" fill="url(#paint4_linear_2980_26514)"/>
</g>
<defs>
<linearGradient id="paint0_linear_2980_26514" x1="1.59375" y1="8.32291" x2="3.46534" y2="-0.546295" gradientUnits="userSpaceOnUse">
<stop stop-color="#053377"/>
<stop offset="1" stop-color="#2F91F2"/>
</linearGradient>
<linearGradient id="paint1_linear_2980_26514" x1="14.174" y1="1.31607" x2="9.91666" y2="7.70312" gradientUnits="userSpaceOnUse">
<stop stop-color="#4AC1FF"/>
<stop offset="0.926632" stop-color="#155EB5"/>
</linearGradient>
<linearGradient id="paint2_linear_2980_26514" x1="7.34897" y1="3.80728" x2="11.5104" y2="12.0417" gradientUnits="userSpaceOnUse">
<stop stop-color="#96DFFF"/>
<stop offset="0.413439" stop-color="#53ADEE"/>
<stop offset="1" stop-color="#006BB9"/>
</linearGradient>
<linearGradient id="paint3_linear_2980_26514" x1="10.6851" y1="10.3199" x2="15.1726" y2="17.7826" gradientUnits="userSpaceOnUse">
<stop offset="0.0799194" stop-color="#4AC1FF"/>
<stop offset="1" stop-color="#155EB5"/>
</linearGradient>
<linearGradient id="paint4_linear_2980_26514" x1="1.76427" y1="7.37649" x2="5.97975" y2="17.5211" gradientUnits="userSpaceOnUse">
<stop stop-color="#2F91F2"/>
<stop offset="1" stop-color="#053377"/>
</linearGradient>
<clipPath id="clip0_2980_26514">
<rect width="17" height="17" fill="white"/>
</clipPath>
</defs>
</svg>